<?xml version="1.0" encoding="UTF-8" standalone="no"?>
<!-- Created with Inkscape (http://www.inkscape.org/) -->

<svg
   xmlns:dc="http://purl.org/dc/elements/1.1/"
   xmlns:cc="http://creativecommons.org/ns#"
   xmlns:rdf="http://www.w3.org/1999/02/22-rdf-syntax-ns#"
   xmlns:svg="http://www.w3.org/2000/svg"
   xmlns="http://www.w3.org/2000/svg"
   xmlns:sodipodi="http://sodipodi.sourceforge.net/DTD/sodipodi-0.dtd"
   xmlns:inkscape="http://www.inkscape.org/namespaces/inkscape"
   width="124.23692"
   height="57.803333"
   id="svg10815"
   version="1.1"
   inkscape:version="0.48+devel r13495"
   viewBox="0 0 124.23692 57.803333"
   sodipodi:docname="logo.svg">
  <defs
     id="defs10817" />
  <sodipodi:namedview
     id="base"
     pagecolor="#ffffff"
     bordercolor="#666666"
     borderopacity="1.0"
     inkscape:pageopacity="0.0"
     inkscape:pageshadow="2"
     inkscape:zoom="0.98994949"
     inkscape:cx="-55.883231"
     inkscape:cy="-98.515359"
     inkscape:document-units="px"
     inkscape:current-layer="layer1"
     showgrid="false"
     fit-margin-top="0"
     fit-margin-left="0"
     fit-margin-right="0"
     fit-margin-bottom="0"
     inkscape:window-width="1366"
     inkscape:window-height="723"
     inkscape:window-x="0"
     inkscape:window-y="21"
     inkscape:window-maximized="1" />
  <metadata
     id="metadata10820">
    <rdf:RDF>
      <cc:Work
         rdf:about="">
        <dc:format>image/svg+xml</dc:format>
        <dc:type
           rdf:resource="http://purl.org/dc/dcmitype/StillImage" />
        <dc:title></dc:title>
      </cc:Work>
    </rdf:RDF>
  </metadata>
  <g
     inkscape:label="Calque 1"
     inkscape:groupmode="layer"
     id="layer1"
     transform="translate(-6.3286159,37.487745)">
    <g
       id="g10150"
       transform="matrix(0.59576899,0,0,0.59576899,-180.90546,260.09131)">
      <path
         inkscape:connector-curvature="0"
         id="path10152"
         d="m 502.84482,-470.9708 c -1.52973,-1.84321 -0.48348,-5.24019 2.02789,-6.58424 2.62505,-1.40487 2.4276,-3.58639 -0.65632,-7.25141 -3.26517,-3.88044 -2.70887,-8.03471 1.60189,-11.96234 6.68418,-6.0901 16.98671,-1.29421 16.98671,7.90741 0,6.53598 -3.71779,12.14933 -11.23013,16.95594 -4.26653,2.72986 -6.99749,3.02223 -8.73004,0.93464 z"
         style="fill:#a54d93;fill-opacity:1"
         sodipodi:nodetypes="sssssss" />
      <path
         style="fill:#006fb3;fill-opacity:1"
         d="m 472.80499,-416.51879 c -1.1,-1.1 -2,-2.59811 -2,-3.32912 0,-0.73102 -2.66642,-8.04352 -5.92538,-16.25 -8.37019,-21.07725 -13.3809,-37.98008 -12.0153,-40.53172 1.39211,-2.60119 5.5432,-4.17226 7.81354,-2.95721 1.04072,0.55698 3.10018,5.08559 5.11619,11.25015 4.96335,15.17692 4.4417,14.56491 8.94594,10.4956 12.61597,-11.39778 29.6023,-3.82362 31.73086,14.14871 1.23932,10.46417 -3.10545,16.65518 -14.87322,21.19332 -4.67819,1.80409 -8.93398,4.16154 -10.03153,5.55685 -2.32521,2.95603 -6.04854,3.13598 -8.7611,0.42342 z m 16.48632,-17.1679 c 1.51582,-1.19234 3.3776,-3.65551 4.13729,-5.47369 1.20053,-2.87329 1.17245,-3.82764 -0.21467,-7.29439 -1.99655,-4.98986 -4.19848,-5.7222 -9.33146,-3.10355 -7.46382,3.80776 -8.73262,10.62759 -2.89161,15.54248 3.63051,3.05487 4.77744,3.10035 8.30045,0.32915 z"
         id="path10154"
         inkscape:connector-curvature="0"
         sodipodi:nodetypes="sssssssssssssssss" />
      <path
         sodipodi:nodetypes="ssssscssssss"
         inkscape:connector-curvature="0"
         id="path10156"
         d="m 442.83754,-407.97957 c -0.66679,-0.80343 -1.42581,-3.39093 -1.68672,-5.75 -0.2609,-2.35907 -1.3916,-7.86588 -2.51265,-12.23736 -3.03054,-11.81743 -1.14849,-21.55186 4.16682,-21.55186 2.83513,0 4.85434,3.24894 6.55126,10.54111 1.93548,8.31732 4.44546,22.26238 4.44737,24.70889 0.004,4.50757 -8.14104,7.69319 -10.96608,4.28922 z m -10.37756,-47.36796 c -2.06346,-2.2801 -2.10716,-5.39618 -0.12931,-9.22092 1.28065,-2.47651 2.13184,-2.95034 5.3,-2.95034 4.76367,0 6.17432,1.41652 6.17432,6.2 0,6.69285 -7.2423,10.50471 -11.34501,5.97126 z"
         style="fill:#afb608;fill-opacity:1" />
      <path
         sodipodi:nodetypes="sssscsssssssssss"
         inkscape:connector-curvature="0"
         id="path10158"
         d="m 370.04651,-409.50249 c -5.75567,-3.35638 -11.84798,-10.75884 -12.78493,-15.53437 -0.65925,-3.36005 2.59016,-16.37814 5.00989,-20.07111 2.38817,-3.64482 9.86019,-7.48583 15.74361,-8.09305 10.76818,-1.11138 16.77928,4.26337 16.78617,15.00915 0.003,5.10951 -0.35615,6.18682 -2.91934,8.75 -3.33302,3.33303 -4.46446,3.46635 -12.07692,1.42308 -10.15656,-2.72613 -13.8538,-1.25889 -10.34022,4.10351 2.58526,3.94561 6.64216,5.55798 12.14709,4.82772 3.77542,-0.50083 5.06961,-0.28499 6.15854,1.0271 3.01675,3.63496 -2.21906,10.10579 -8.98886,11.10914 -2.67894,0.39705 -4.68298,-0.18825 -8.73503,-2.55117 z m 14.18192,-28.32582 c 1.65154,-2.61823 -0.51769,-5.13856 -4.73238,-5.49832 -8.19046,-0.69914 -10.32041,4.38135 -2.68636,6.40766 5.30625,1.40843 6.01124,1.32202 7.41874,-0.90934 z"
         style="fill:#0099b5;fill-opacity:1" />
      <path
         style="fill:#dc0780;fill-opacity:1"
         d="m 409.00997,-405.42213 c -1.6015,-2.63345 -1.74319,-5.77079 -1.52424,-33.75 0.13276,-16.96566 0.50327,-32.30369 0.82335,-34.08451 0.61316,-3.41132 3.63374,-5.80698 6.1192,-4.85321 3.49993,1.34304 4.15398,6.49271 4.83789,38.09106 0.65229,30.13784 0.6139,31.09039 -1.38041,34.25 -2.69665,4.27233 -6.40048,4.41699 -8.87579,0.34666 z"
         id="path10160"
         inkscape:connector-curvature="0"
         sodipodi:nodetypes="sssssss" />
      <path
         style="fill:#f7ad00;fill-opacity:1"
         d="m 316.96882,-428.03765 c -2.90521,-3.69338 -3.44346,-10.62842 -1.70602,-21.98114 0.84172,-5.5 1.53306,-12.17212 1.53631,-14.82692 0.005,-3.99737 0.50825,-5.32929 2.92897,-7.75 3.24143,-3.24144 4.80852,-3.57104 7.52711,-1.58316 2.16565,1.58356 2.44877,6.3598 1.23947,20.91008 -0.68586,8.25236 -0.58601,9.75 0.65005,9.75 0.80321,0 5.14015,-3.0375 9.63765,-6.75 4.4975,-3.7125 9.66348,-7.62463 11.47996,-8.69363 3.14544,-1.85108 3.42745,-1.86189 5.92268,-0.22695 3.36344,2.20381 3.42918,6.01549 0.18605,10.78818 -4.12205,6.06614 -30.94895,22.8824 -36.5042,22.8824 -0.50418,0 -1.80829,-1.13349 -2.89803,-2.51886 z"
         id="path10162"
         inkscape:connector-curvature="0"
         sodipodi:nodetypes="sscssssssssss" />
    </g>
  </g>
</svg>
