<?xml version="1.0" encoding="UTF-8" standalone="no"?>
<!-- Created with Inkscape (http://www.inkscape.org/) -->

<svg
   xmlns:dc="http://purl.org/dc/elements/1.1/"
   xmlns:cc="http://creativecommons.org/ns#"
   xmlns:rdf="http://www.w3.org/1999/02/22-rdf-syntax-ns#"
   xmlns:svg="http://www.w3.org/2000/svg"
   xmlns="http://www.w3.org/2000/svg"
   xmlns:sodipodi="http://sodipodi.sourceforge.net/DTD/sodipodi-0.dtd"
   xmlns:inkscape="http://www.inkscape.org/namespaces/inkscape"
   width="128"
   height="128"
   id="svg10815"
   version="1.1"
   inkscape:version="0.48+devel r13495"
   viewBox="0 0 128 128"
   sodipodi:docname="loupe.svg">
  <defs
     id="defs10817" />
  <sodipodi:namedview
     id="base"
     pagecolor="#ffffff"
     bordercolor="#666666"
     borderopacity="1.0"
     inkscape:pageopacity="0.0"
     inkscape:pageshadow="2"
     inkscape:zoom="0.98994949"
     inkscape:cx="-65.194917"
     inkscape:cy="-32.879651"
     inkscape:document-units="px"
     inkscape:current-layer="layer1"
     showgrid="false"
     fit-margin-top="0"
     fit-margin-left="0"
     fit-margin-right="0"
     fit-margin-bottom="0"
     inkscape:window-width="1366"
     inkscape:window-height="723"
     inkscape:window-x="0"
     inkscape:window-y="21"
     inkscape:window-maximized="1" />
  <metadata
     id="metadata10820">
    <rdf:RDF>
      <cc:Work
         rdf:about="">
        <dc:format>image/svg+xml</dc:format>
        <dc:type
           rdf:resource="http://purl.org/dc/dcmitype/StillImage" />
        <dc:title></dc:title>
      </cc:Work>
    </rdf:RDF>
  </metadata>
  <g
     inkscape:label="Calque 1"
     inkscape:groupmode="layer"
     id="layer1"
     transform="translate(-4.5286239,42.048702)">
    <path
       style="opacity:1;fill:#F7AD00;fill-opacity:1;stroke:none;stroke-width:1;stroke-linecap:round;stroke-linejoin:round;stroke-miterlimit:4;stroke-dasharray:none;stroke-dashoffset:0;stroke-opacity:1"
       d="m 93.418267,-2.9404093 a 27.59408,27.59408 0 0 0 -39.0235,0.002 27.59408,27.59408 0 0 0 -4.4299,33.2186003 l -13.511,13.51086 c -1.1974,1.19748 -1.1974,3.12526 0,4.32272 l 5.9123,5.91207 c 1.1974,1.19743 3.1252,1.19743 4.3226,0 l 13.5281,-13.52793 a 27.59408,27.59408 0 0 0 33.2014,-4.41276 27.59408,27.59408 0 0 0 0,-39.0260103 z m -7.1217,7.12177 a 17.52339,17.52339 0 0 1 0,24.7825003 17.52339,17.52339 0 0 1 -24.7827,0 17.52339,17.52339 0 0 1 0,-24.7801003 17.52339,17.52339 0 0 1 24.7801,-0.002 z"
       id="path10295"
       inkscape:connector-curvature="0" />
  </g>
</svg>
