<?xml version="1.0" encoding="UTF-8" standalone="no"?>
<!-- Created with Inkscape (http://www.inkscape.org/) -->

<svg
   xmlns:dc="http://purl.org/dc/elements/1.1/"
   xmlns:cc="http://creativecommons.org/ns#"
   xmlns:rdf="http://www.w3.org/1999/02/22-rdf-syntax-ns#"
   xmlns:svg="http://www.w3.org/2000/svg"
   xmlns="http://www.w3.org/2000/svg"
   xmlns:sodipodi="http://sodipodi.sourceforge.net/DTD/sodipodi-0.dtd"
   xmlns:inkscape="http://www.inkscape.org/namespaces/inkscape"
   width="9.0311108mm"
   height="8.709506mm"
   viewBox="0 0 31.999999 30.860454"
   id="svg6574"
   version="1.1"
   inkscape:version="0.91 r13725"
   sodipodi:docname="station.svg">
  <defs
     id="defs6576" />
  <sodipodi:namedview
     id="base"
     pagecolor="#ffffff"
     bordercolor="#666666"
     borderopacity="1.0"
     inkscape:pageopacity="0.0"
     inkscape:pageshadow="2"
     inkscape:zoom="5.6"
     inkscape:cx="-5.4470056"
     inkscape:cy="1.1289408"
     inkscape:document-units="px"
     inkscape:current-layer="layer1"
     showgrid="false"
     fit-margin-top="0"
     fit-margin-left="0"
     fit-margin-right="0"
     fit-margin-bottom="0"
     inkscape:window-width="1366"
     inkscape:window-height="726"
     inkscape:window-x="0"
     inkscape:window-y="22"
     inkscape:window-maximized="1" />
  <metadata
     id="metadata6579">
    <rdf:RDF>
      <cc:Work
         rdf:about="">
        <dc:format>image/svg+xml</dc:format>
        <dc:type
           rdf:resource="http://purl.org/dc/dcmitype/StillImage" />
        <dc:title></dc:title>
      </cc:Work>
    </rdf:RDF>
  </metadata>
  <g
     inkscape:label="Calque 1"
     inkscape:groupmode="layer"
     id="layer1"
     transform="translate(-210.10591,-459.20797)">
    <g
       id="g6555"
       transform="matrix(0.75037474,0,0,0.75037474,-1409.7297,-351.86648)">
      <path
         style="opacity:1;fill:#ea2c93;fill-opacity:1;stroke:none;stroke-width:1.33326244;stroke-linecap:butt;stroke-linejoin:round;stroke-miterlimit:4;stroke-dasharray:none;stroke-dashoffset:0;stroke-opacity:1"
         d="m 2173.145,1081.5742 c -1.3019,-0.052 -2.6343,0.089 -3.959,0.4434 l 0,0 c -7.0649,1.8937 -11.2556,9.1555 -9.3632,16.2207 0.601,2.2432 1.7905,4.2846 3.4355,5.9238 l -0.1953,-0.1972 16.6348,17.3867 0.2734,-1.1192 0,-36.4218 c -2.0037,-1.3386 -4.3571,-2.1381 -6.8242,-2.2364 z"
         id="path6547"
         inkscape:connector-curvature="0" />
      <path
         style="opacity:1;fill:#00aece;fill-opacity:1;stroke:none;stroke-width:1.33326244;stroke-linecap:butt;stroke-linejoin:round;stroke-miterlimit:4;stroke-dasharray:none;stroke-dashoffset:0;stroke-opacity:1"
         d="m 2186.9087,1081.5664 c -2.5136,0.1001 -4.9119,0.9278 -6.9395,2.3125 l 0,36.0996 0.3301,1.3516 16.6347,-17.3867 -0.1328,0.2129 c 1.6427,-1.6406 2.8257,-3.6841 3.4297,-5.9258 1.8924,-7.0652 -2.3004,-14.327 -9.3652,-16.2207 -1.3248,-0.3549 -2.6552,-0.4952 -3.957,-0.4434 z"
         id="path6549"
         inkscape:connector-curvature="0" />
      <path
         style="color:#000000;font-style:normal;font-variant:normal;font-weight:normal;font-stretch:normal;font-size:medium;line-height:normal;font-family:sans-serif;text-indent:0;text-align:start;text-decoration:none;text-decoration-line:none;text-decoration-style:solid;text-decoration-color:#000000;letter-spacing:normal;word-spacing:normal;text-transform:none;direction:ltr;block-progression:tb;writing-mode:lr-tb;baseline-shift:baseline;text-anchor:start;white-space:normal;clip-rule:nonzero;display:inline;overflow:visible;visibility:visible;opacity:1;isolation:auto;mix-blend-mode:normal;color-interpolation:sRGB;color-interpolation-filters:linearRGB;solid-color:#000000;solid-opacity:1;fill:#009bb7;fill-opacity:1;fill-rule:nonzero;stroke:none;stroke-width:1.33326244;stroke-linecap:butt;stroke-linejoin:round;stroke-miterlimit:4;stroke-dasharray:none;stroke-dashoffset:0;stroke-opacity:1;color-rendering:auto;image-rendering:auto;shape-rendering:auto;text-rendering:auto;enable-background:accumulate"
         d="m 2187.0551,1080.8946 c -2.5481,0.071 -4.9893,0.856 -7.0859,2.1914 l 0,1.6015 c 2.3227,-1.7116 5.2108,-2.6199 8.2012,-2.4394 l 0.01,0 c 0.8335,0.05 1.6753,0.1858 2.5137,0.4101 6.7158,1.8012 10.6916,8.6877 8.8926,15.4043 -0.5421,2.0107 -1.6076,3.8289 -3.0352,5.3399 a 0.66669788,0.66669788 0 0 0 -0.1,0.084 l -15.793,16.5079 -0.6855,-2.8067 0,4.7266 a 0.66669788,0.66669788 0 0 0 0.8066,-0.1192 l 16.2891,-17.0254 a 0.66669788,0.66669788 0 0 0 0.2012,-0.1367 c 0.037,-0.036 0.058,-0.084 0.094,-0.1211 l 0.02,-0.027 c 1.6572,-1.7001 2.87,-3.7837 3.4882,-6.0781 1.9731,-7.3664 -2.375,-14.9393 -9.7031,-16.9844 0,-6e-4 3e-4,0 -0.01,0 a 0.66669788,0.66669788 0 0 0 -0.125,-0.047 c -0.03,-0.01 -0.062,-0.01 -0.092,-0.016 a 0.66669788,0.66669788 0 0 0 -0.039,0 c -0.884,-0.2278 -1.769,-0.3793 -2.6484,-0.4317 l 0.01,-0.01 c -0.4034,-0.024 -0.8056,-0.031 -1.2051,-0.02 z"
         id="path6551"
         inkscape:connector-curvature="0" />
      <path
         style="color:#000000;font-style:normal;font-variant:normal;font-weight:normal;font-stretch:normal;font-size:medium;line-height:normal;font-family:sans-serif;text-indent:0;text-align:start;text-decoration:none;text-decoration-line:none;text-decoration-style:solid;text-decoration-color:#000000;letter-spacing:normal;word-spacing:normal;text-transform:none;direction:ltr;block-progression:tb;writing-mode:lr-tb;baseline-shift:baseline;text-anchor:start;white-space:normal;clip-rule:nonzero;display:inline;overflow:visible;visibility:visible;opacity:1;isolation:auto;mix-blend-mode:normal;color-interpolation:sRGB;color-interpolation-filters:linearRGB;solid-color:#000000;solid-opacity:1;fill:#dc1681;fill-opacity:1;fill-rule:nonzero;stroke:none;stroke-width:1.33326244;stroke-linecap:butt;stroke-linejoin:round;stroke-miterlimit:4;stroke-dasharray:none;stroke-dashoffset:0;stroke-opacity:1;color-rendering:auto;image-rendering:auto;shape-rendering:auto;text-rendering:auto;enable-background:accumulate"
         d="m 2172.9965,1080.9043 c -0.3994,-0.011 -0.7996,0 -1.2031,0.019 l 0,0 c -0.8807,0.053 -1.769,0.2032 -2.6543,0.4316 a 0.66669788,0.66669788 0 0 0 -0.125,0.02 c -7.4129,1.9869 -11.8215,9.6239 -9.8359,17.0371 0.5814,2.1698 1.7374,4.121 3.2558,5.7656 a 0.66669788,0.66669788 0 0 0 0.1465,0.25 l 16.6348,17.3867 a 0.66669788,0.66669788 0 0 0 0.7539,0.1465 l 0,-4.5371 -0.6328,2.5898 -15.5547,-16.2578 a 0.66669788,0.66669788 0 0 0 -0.049,-0.059 c 0,0 2e-4,-0.01 -0.01,-0.01 -1.5593,-1.5562 -2.6884,-3.4921 -3.2578,-5.6172 -1.7992,-6.7173 2.1775,-13.6039 8.8945,-15.4043 0.8396,-0.2249 1.6829,-0.3579 2.5176,-0.4082 l 0,0 c 2.9434,-0.1776 5.7901,0.6942 8.0937,2.3535 l 0,-1.584 c -2.0706,-1.2907 -4.4708,-2.0477 -6.9727,-2.1172 z"
         id="path6553"
         inkscape:connector-curvature="0" />
    </g>
  </g>
</svg>
