<?xml version="1.0" encoding="UTF-8" standalone="no"?>
<!-- Created with Inkscape (http://www.inkscape.org/) -->

<svg
   xmlns:dc="http://purl.org/dc/elements/1.1/"
   xmlns:cc="http://creativecommons.org/ns#"
   xmlns:rdf="http://www.w3.org/1999/02/22-rdf-syntax-ns#"
   xmlns:svg="http://www.w3.org/2000/svg"
   xmlns="http://www.w3.org/2000/svg"
   xmlns:sodipodi="http://sodipodi.sourceforge.net/DTD/sodipodi-0.dtd"
   xmlns:inkscape="http://www.inkscape.org/namespaces/inkscape"
   width="31.999998"
   height="32"
   viewBox="0 0 31.999999 31.999999"
   id="svg5711"
   version="1.1"
   inkscape:version="0.91 r13725"
   sodipodi:docname="v-plus.svg">
  <defs
     id="defs5713" />
  <sodipodi:namedview
     id="base"
     pagecolor="#ffffff"
     bordercolor="#666666"
     borderopacity="1.0"
     inkscape:pageopacity="0.0"
     inkscape:pageshadow="2"
     inkscape:zoom="3.959798"
     inkscape:cx="5.1243995"
     inkscape:cy="6.2654885"
     inkscape:document-units="px"
     inkscape:current-layer="layer1"
     showgrid="false"
     fit-margin-top="0"
     fit-margin-left="0"
     fit-margin-right="0"
     fit-margin-bottom="0"
     units="px"
     inkscape:window-width="1366"
     inkscape:window-height="726"
     inkscape:window-x="0"
     inkscape:window-y="22"
     inkscape:window-maximized="1" />
  <metadata
     id="metadata5716">
    <rdf:RDF>
      <cc:Work
         rdf:about="">
        <dc:format>image/svg+xml</dc:format>
        <dc:type
           rdf:resource="http://purl.org/dc/dcmitype/StillImage" />
        <dc:title></dc:title>
      </cc:Work>
    </rdf:RDF>
  </metadata>
  <g
     inkscape:label="Calque 1"
     inkscape:groupmode="layer"
     id="layer1"
     transform="translate(-25.984696,-111.51987)">
    <g
       transform="matrix(0.10400269,0,0,0.10400269,-154.08406,31.002874)"
       id="g10164">
      <circle
         style="opacity:1;fill:#660b55;fill-opacity:1;stroke:none;stroke-width:3;stroke-linecap:butt;stroke-linejoin:round;stroke-miterlimit:4;stroke-dasharray:none;stroke-dashoffset:0;stroke-opacity:1"
         id="circle10166"
         cx="1857.1288"
         cy="897.81757"
         r="123.63571" />
      <circle
         style="opacity:1;fill:#e6006b;fill-opacity:1;stroke:none;stroke-width:3;stroke-linecap:butt;stroke-linejoin:round;stroke-miterlimit:4;stroke-dasharray:none;stroke-dashoffset:0;stroke-opacity:1"
         id="circle10168"
         cx="1955.4752"
         cy="1000.379"
         r="81.487175" />
      <path
         style="fill:#ffffff;fill-opacity:1;fill-rule:evenodd;stroke:none;stroke-width:1px;stroke-linecap:butt;stroke-linejoin:miter;stroke-opacity:1"
         d="m 1967.5325,988.28464 c 0,0 37.5028,0 42.9668,1.49017 5.4639,1.49018 10.2563,14.49169 5.2155,20.11739 -5.1844,5.7861 -7.9122,6.42 -21.8205,4.9298 -13.9083,-1.4902 -23.8428,-0.09 -23.8428,-0.09 0,0 -0.035,20.7419 -0.035,30.1797 0,9.4378 -9.4377,17.3854 -16.8886,17.8821 -7.4509,0.4967 -16.355,-6.7464 -14.4051,-20.1174 1.7386,-11.9214 -0.9934,-26.8232 -0.9934,-26.8232 0,0 -31.7904,0.7452 -37.7511,-3.2286 -5.9607,-3.9738 -7.3002,-18.98105 0.9934,-23.34611 4.7189,-2.48362 37.2544,-0.49673 37.2544,-0.49673 0,0 -0.9934,-31.79041 0,-35.26749 2.46,-8.61034 11.9214,-11.42468 16.392,-10.92796 4.4705,0.49673 12.9148,5.46398 12.4181,14.40504 -0.4967,8.94105 0.4967,31.29369 0.4967,31.29369 z"
         id="path10170"
         inkscape:connector-curvature="0"
         sodipodi:nodetypes="cssscssscsscsssc" />
      <path
         inkscape:connector-curvature="0"
         id="path10172"
         d="m 1893.0205,896.28604 c -4.3632,-5.2578 -1.379,-14.94707 5.7844,-18.78097 7.4876,-4.00732 6.9245,-10.22979 -1.8719,-20.6838 -9.3137,-11.0684 -7.7269,-22.91808 4.5689,-34.1211 19.0659,-17.37133 48.4529,-3.69157 48.4529,22.55496 0,18.6432 -10.6046,34.65451 -32.0329,48.36479 -12.1697,7.78673 -19.9595,8.62049 -24.9014,2.66612 z"
         style="fill:#ffffff;fill-opacity:1"
         sodipodi:nodetypes="sssssss" />
      <path
         style="fill:#ffffff;fill-opacity:1"
         d="m 1810.2636,986.39153 c -12.5301,-4.75939 -24.0381,-20.92182 -36.4751,-51.22851 -6.0255,-14.68246 -14.1413,-32.00952 -18.035,-38.50433 -5.8747,-9.77192 -6.5897,-13.77481 -4.2297,-23.25039 3.1605,-12.68791 6.5071,-15.79677 16.0744,-14.93234 7.6215,0.68825 15.3332,11.94844 33.7607,49.29588 10.4515,21.18174 12.8966,24.69639 15.9185,22.87966 1.9635,-1.18041 8.1015,-14.97967 13.6401,-30.66518 5.5387,-15.68547 12.4182,-32.84162 15.2878,-38.12454 4.9689,-9.14766 5.6424,-9.58876 14.1452,-9.259 11.4612,0.4444 17.2237,9.66605 16.3097,26.09986 -1.1617,20.88729 -42.0294,101.42324 -55.6101,109.58757 -1.2327,0.74106 -6.0865,-0.11339 -10.7865,-1.89868 z"
         id="path10174"
         inkscape:connector-curvature="0"
         sodipodi:nodetypes="sscssssssssss" />
    </g>
  </g>
</svg>
