<?xml version="1.0" encoding="UTF-8" standalone="no"?>
<!-- Created with Inkscape (http://www.inkscape.org/) -->

<svg
   xmlns:dc="http://purl.org/dc/elements/1.1/"
   xmlns:cc="http://creativecommons.org/ns#"
   xmlns:rdf="http://www.w3.org/1999/02/22-rdf-syntax-ns#"
   xmlns:svg="http://www.w3.org/2000/svg"
   xmlns="http://www.w3.org/2000/svg"
   xmlns:sodipodi="http://sodipodi.sourceforge.net/DTD/sodipodi-0.dtd"
   xmlns:inkscape="http://www.inkscape.org/namespaces/inkscape"
   width="128"
   height="128"
   id="svg10815"
   version="1.1"
   inkscape:version="0.48+devel r13495"
   viewBox="0 0 128 128"
   sodipodi:docname="velib.svg">
  <defs
     id="defs10817" />
  <sodipodi:namedview
     id="base"
     pagecolor="#ffffff"
     bordercolor="#666666"
     borderopacity="1.0"
     inkscape:pageopacity="0.0"
     inkscape:pageshadow="2"
     inkscape:zoom="0.98994949"
     inkscape:cx="-65.194917"
     inkscape:cy="-32.879651"
     inkscape:document-units="px"
     inkscape:current-layer="layer1"
     showgrid="false"
     fit-margin-top="0"
     fit-margin-left="0"
     fit-margin-right="0"
     fit-margin-bottom="0"
     inkscape:window-width="1366"
     inkscape:window-height="723"
     inkscape:window-x="0"
     inkscape:window-y="21"
     inkscape:window-maximized="1" />
  <metadata
     id="metadata10820">
    <rdf:RDF>
      <cc:Work
         rdf:about="">
        <dc:format>image/svg+xml</dc:format>
        <dc:type
           rdf:resource="http://purl.org/dc/dcmitype/StillImage" />
        <dc:title></dc:title>
      </cc:Work>
    </rdf:RDF>
  </metadata>
  <g
     inkscape:label="Calque 1"
     inkscape:groupmode="layer"
     id="layer1"
     transform="translate(-4.5286239,42.048702)">
    <path
       style="color:#000000;font-style:normal;font-variant:normal;font-weight:normal;font-stretch:normal;font-size:medium;line-height:normal;font-family:sans-serif;text-indent:0;text-align:start;text-decoration:none;text-decoration-line:none;text-decoration-style:solid;text-decoration-color:#000000;letter-spacing:normal;word-spacing:normal;text-transform:none;direction:ltr;block-progression:tb;writing-mode:lr-tb;baseline-shift:baseline;text-anchor:start;clip-rule:nonzero;display:inline;overflow:visible;visibility:visible;opacity:1;isolation:auto;color-interpolation:sRGB;color-interpolation-filters:linearRGB;fill:#ffffff;fill-opacity:1;fill-rule:nonzero;stroke:none;stroke-width:3;stroke-linecap:butt;stroke-linejoin:round;stroke-miterlimit:4;stroke-dasharray:none;stroke-dashoffset:0;stroke-opacity:1;color-rendering:auto;image-rendering:auto;shape-rendering:auto;text-rendering:auto;enable-background:accumulate"
       d="m 44.810221,-15.888391 -0.09,15.26560946 -6.2733,17.64004954 c -3.0387,-1.3987 -6.4159,-2.18386 -9.9751,-2.18386 -13.2033,0 -23.9432095,10.73988 -23.9432095,23.94327 0,13.20336 10.7399095,23.94111 23.9432095,23.94111 13.2034,2e-5 23.9412,-10.73774 23.9412,-23.94111 0,-8.45587 -4.4081,-15.89686 -11.0435,-20.15791 l 2.7704,-7.7934 c 8.9846,17.22568 24.3054,26.31184 35.6099,28.25104 0.7292,1.09499 1.8434,1.84033 3.0659,2.34659 0.6718,0.27821 1.3926,0.49607 2.1497,0.66801 1.6189,11.63916 11.6271,20.62678 23.705599,20.62678 13.2033,0 23.9432,-10.73774 23.9432,-23.94111 0,-6.07152 -2.2898,-11.60597 -6.0271,-15.83087 1.2563,-0.87106 2.0555,-1.8263 2.0555,-1.8263 l 0.6594,-0.80076 -3.5176,-7.53218 -6.4511,1.45591 c -0.7591,-0.27962 -6.5617,-2.37512 -13.0817,-2.29948 -2.3194,0.027 -4.696,0.34603 -6.900599,1.20755 -5.6132,2.1936 -11.1386,5.5968 -15.3406,11.44173 l 7.0719,-20.2392695 c 0.036,0.017 0.093,0.0417 0.1257,0.0578 1.7818,0.84636 3.6842,0.69891 5.3911,0.38538 0.9226,-0.16945 1.94,-0.45933 2.839,-1.18827 0.899199,-0.72894 1.546599,-1.9688 1.590799,-3.36358004 0.043,-1.35659996 -0.3906,-2.49022996 -0.9762,-3.25866996 -0.585799,-0.76842 -1.101499,-1.20815 -2.029799,-1.39381 -0.3003,-0.0601 -0.4674,-0.067 -0.5866,-0.0557 -0.1199,0.0114 -0.1909,0.0407 -0.3019,0.0557 -0.2221,0.03 -0.4598,0.0728 -0.7301,0.12423 -0.5409,0.10267 -1.2071,0.24455 -1.9462,0.39397 -1.4782,0.2988 -3.2488,0.62594 -4.5755,0.72579 -1.3212,0.0994 -3.6603,0.0627 -5.7058,0.20127 -1.0227,0.0692 -1.9688,0.16979 -2.839,0.43249 -0.4351,0.13137 -0.8646,0.29393 -1.304,0.64659 -0.4392,0.35268 -0.8906,1.05128996 -0.8906,1.78991996 0,-0.046 0.026,-0.19482 -0.036,0.11995 -0.031,0.15737 -0.1071,0.53353 0.073,1.01915004 0.1798,0.4856 0.5781,0.81635 0.8244,0.95705 0.6208,0.35481 0.6715,0.22803 0.8306,0.24406 0.1592,0.016 0.3023,0.0229 0.4647,0.0278 0.3248,0.01 0.7105,0.0114 1.154,0.015 0.887,0.007 1.9928,0.025 3.0253,0.11351 0.7214,0.0618 1.6459,0.34391 2.565,0.67658 l -11.1678,31.9571795 c -9.7996,-2.89465 -22.3877,-11.31494 -29.9403,-25.9536995 -0.057,-0.11153 -1.0074,-1.97165 -1.2824,-2.51144 l 2.3058,-6.48736004 0.047,-0.13065 0,-0.14559 1.7344,-9.97296046 4.1299,-1.02129 a 1.6448296,1.6448296 0 0 0 0.014,-0.003 1.6444842,1.6444842 0 0 0 -0.2354,-3.237249 l -8.834,-1.46234 z m -22.6694,8.9730995 c -0.8026,0.0246 -1.5407,0.11723 -2.2267,0.32544 l -1.5887,0.48173 0.4968,1.58437 c 1.548,4.92284996 2.0154,9.06964 4.5948,12.22963 1.2895,1.57999 3.1342,2.7749895 5.5944,3.4534895 2.4602,0.67852 5.5459,0.90288 9.6347,0.72369 l 1.6336,-0.0707 -0.6187,-16.4046595 -1.2697,-0.25691 c 0,0 -3.563,-0.72238 -7.59,-1.31033 -2.0135,-0.29396 -4.145,-0.5557 -6.042,-0.67656 -0.9485,-0.0605 -1.8158,-0.10381 -2.6185,-0.0793 z m 1.306,3.35715 c 0.2964,-0.0184 0.6276,-0.026 1.1026,0.004 1.7507,0.11152 3.8166,0.36258 5.7767,0.64874 3.2508,0.47462 5.232,0.88199 6.1469,1.06195 l 0.394,10.42901 c -2.9624,0.033 -5.3499,-0.14722 -6.982,-0.59735 -1.9484,-0.53737 -3.0563,-1.30528 -3.9202,-2.36371 -1.4686,-1.79908 -2.2387,-5.06350004 -3.4129,-9.11869 0.337,-0.0169 0.5986,-0.0458 0.8949,-0.0643 z m 5.0251,21.6801795 c 3.1801,0 6.1782,0.73656 8.866,2.01472 l -2.9418,8.27726 -6.1919,7.32238 a 1.6445644,1.6445644 0 0 0 0.2313,2.34871 1.6445644,1.6445644 0 0 0 0.2762,0.17772 1.6445644,1.6445644 0 0 0 2.0041,-0.40253 l 6.5771,-7.78054 2.9439,-8.2794 c 5.3709,3.72574 8.8876,9.92912 8.8876,16.97632 0,11.42605 -9.2264,20.65248 -20.6525,20.65247 -11.426,0 -20.6547095,-9.22643 -20.6547095,-20.65247 0,-11.42607 9.2287095,-20.65463 20.6547095,-20.65464 z m 82.350899,2.19242 c 3.5385,0.1131 7.2694,1.51933 8.335,2.49861 l 0,0.003 c 1.0967,1.00764 2.4229,1.48378 3.6269,1.48373 0.1998,-10e-6 0.3876,-0.0263 0.5782,-0.0471 3.6863,3.72864 5.9627,8.85443 5.9627,14.52483 0,11.42605 -9.2285,20.65249 -20.6546,20.65249 -10.134099,0 -18.521899,-7.26247 -20.292899,-16.8757 1.4571,0.095 2.9794,0.0947 4.522,0.0343 7.395999,-0.28918 15.139399,-2.02542 15.139399,-2.02542 l 2.8282,-0.63163 -1.9912,-2.10463 c 0,0 -2.2762,-2.41601 -4.1321,-5.52388 -0.928,-1.55395 -1.7312,-3.26758 -2.0983,-4.83448 -0.367,-1.56688 -0.307,-2.90849 0.2827,-4.00803 1.2337,-2.30079 4.3553,-3.25828 7.894,-3.14519 z"
       id="path7607"
       inkscape:connector-curvature="0" />
  </g>
</svg>
