<?xml version="1.0" encoding="UTF-8" standalone="no"?>
<!-- Created with Inkscape (http://www.inkscape.org/) -->

<svg
   xmlns:dc="http://purl.org/dc/elements/1.1/"
   xmlns:cc="http://creativecommons.org/ns#"
   xmlns:rdf="http://www.w3.org/1999/02/22-rdf-syntax-ns#"
   xmlns:svg="http://www.w3.org/2000/svg"
   xmlns="http://www.w3.org/2000/svg"
   version="1.1"
   width="89.70089"
   height="55.04985"
   id="svg3260">
  <defs
     id="defs3262" />
  <metadata
     id="metadata3265">
    <rdf:RDF>
      <cc:Work
         rdf:about="">
        <dc:format>image/svg+xml</dc:format>
        <dc:type
           rdf:resource="http://purl.org/dc/dcmitype/StillImage" />
        <dc:title></dc:title>
      </cc:Work>
    </rdf:RDF>
  </metadata>
  <g
     transform="translate(-603.72098,-539.12297)"
     id="layer1">
    <path
       d="m 631.93096,539.12337 -0.063,10.69081 -4.39328,12.35367 c -2.12813,-0.97954 -4.49322,-1.5294 -6.98577,-1.5294 -9.24657,0 -16.76794,7.52135 -16.76793,16.76794 0,9.24657 7.52136,16.76643 16.76793,16.76643 9.24658,10e-6 16.76644,-7.51985 16.76644,-16.76643 0,-5.92181 -3.0871,-11.13288 -7.73397,-14.11698 l 1.94024,-5.45787 c 6.29206,12.06348 17.02147,18.4267 24.93824,19.78476 0.51069,0.76684 1.29105,1.28882 2.14716,1.64336 0.47047,0.19484 0.97521,0.34741 1.50541,0.46782 1.13374,8.15113 8.14273,14.44534 16.6015,14.44534 9.24658,0 16.76794,-7.51985 16.76794,-16.76643 0,-4.252 -1.60355,-8.12789 -4.22085,-11.08667 0.87972,-0.61002 1.43944,-1.27899 1.43944,-1.27899 l 0.46182,-0.56079 -2.46354,-5.27493 -4.51773,1.0196 c -0.53163,-0.19582 -4.59537,-1.66334 -9.16141,-1.61037 -1.62429,0.0189 -3.28874,0.24233 -4.83261,0.84567 -3.93101,1.53622 -7.80065,3.91955 -10.7433,8.01287 l 4.95257,-14.17396 c 0.0251,0.0119 0.0647,0.0292 0.0885,0.0405 1.24782,0.59272 2.5801,0.48946 3.77552,0.26989 0.64612,-0.11867 1.35856,-0.32168 1.98823,-0.83217 0.62963,-0.51049 1.08304,-1.37879 1.11406,-2.35558 0.0302,-0.95005 -0.27362,-1.74396 -0.68374,-2.28211 -0.41011,-0.53814 -0.77136,-0.84609 -1.42144,-0.97611 -0.21029,-0.0421 -0.32729,-0.0469 -0.41084,-0.039 -0.0836,0.008 -0.13364,0.0285 -0.21142,0.039 -0.15554,0.021 -0.32194,0.051 -0.51129,0.087 -0.37872,0.0719 -0.84536,0.17126 -1.36297,0.2759 -1.03523,0.20926 -2.27516,0.43836 -3.20425,0.50829 -0.92534,0.0696 -2.56344,0.0439 -3.99593,0.14095 -0.71625,0.0485 -1.37879,0.11891 -1.98822,0.30288 -0.30473,0.092 -0.60548,0.20585 -0.91315,0.45282 -0.30766,0.24699 -0.62376,0.73624 -0.62376,1.25352 0,-0.0322 0.0183,-0.13644 -0.0255,0.084 -0.022,0.11021 -0.0749,0.37364 0.051,0.71373 0.12593,0.34008 0.40486,0.57171 0.57727,0.67024 0.43489,0.24848 0.47031,0.1597 0.58177,0.17092 0.11147,0.0112 0.21163,0.016 0.32538,0.0195 0.22747,0.007 0.49757,0.008 0.80818,0.0105 0.62123,0.005 1.39564,0.0175 2.11867,0.0795 0.50523,0.0433 1.1526,0.24084 1.7963,0.47382 l -7.82094,22.38024 c -6.86295,-2.02718 -15.6786,-7.92408 -20.9678,-18.17589 -0.0403,-0.0781 -0.7055,-1.38078 -0.89814,-1.75881 l 1.61487,-4.54322 0.033,-0.0915 0,-0.10196 1.21452,-6.98426 2.89237,-0.71523 a 1.1519064,1.1519064 0 0 0 0.006,-0.002 1.1516645,1.1516645 0 0 0 -0.16494,-2.26711 l -6.18657,-1.0241 z m -15.87579,6.28404 c -0.56211,0.0172 -1.07897,0.0821 -1.55938,0.22791 l -1.11257,0.33737 0.34787,1.10956 c 1.08413,3.44757 1.41134,6.35165 3.21774,8.56465 0.90319,1.1065 2.19505,1.94338 3.91796,2.41855 1.72292,0.47518 3.88386,0.6323 6.74736,0.50681 l 1.14406,-0.0495 -0.43334,-11.4885 -0.88915,-0.17992 c 0,0 -2.49524,-0.5059 -5.31542,-0.91765 -1.41009,-0.20587 -2.9028,-0.38917 -4.23134,-0.47381 -0.66428,-0.0424 -1.27166,-0.0727 -1.83379,-0.0555 z m 0.91465,2.35108 c 0.20755,-0.0129 0.43949,-0.0182 0.7722,0.003 1.22598,0.0781 2.67277,0.25392 4.04541,0.45432 2.27664,0.33239 3.66413,0.61768 4.30482,0.74371 l 0.27589,7.30364 c -2.07461,0.0231 -3.74659,-0.1031 -4.88958,-0.41834 -1.36453,-0.37633 -2.14039,-0.91411 -2.74543,-1.65535 -1.02844,-1.25993 -1.56772,-3.54607 -2.39007,-6.386 0.23605,-0.0118 0.4192,-0.0321 0.62676,-0.045 z m 3.51912,15.18305 c 2.2271,0 4.32672,0.51583 6.20907,1.41095 l -2.06019,5.79673 -4.33631,5.128 a 1.1517207,1.1517207 0 0 0 0.16194,1.64485 1.1517207,1.1517207 0 0 0 0.19342,0.12446 1.1517207,1.1517207 0 0 0 1.40346,-0.2819 l 4.60619,-5.44886 2.0617,-5.79823 c 3.7613,2.60921 6.22406,6.95356 6.22406,11.88885 0,8.00189 -6.46145,14.46334 -14.46334,14.46333 -8.00189,0 -14.46483,-6.46145 -14.46483,-14.46333 -10e-6,-8.0019 6.46294,-14.46484 14.46483,-14.46485 z m 57.67193,1.5354 c 2.47815,0.0792 5.09091,1.06401 5.83722,1.74982 l 0,0.002 c 0.76795,0.70567 1.69678,1.03912 2.54,1.03909 0.13985,-10e-6 0.27138,-0.0184 0.40484,-0.033 2.58161,2.61124 4.17587,6.20093 4.17587,10.17202 0,8.00189 -6.46295,14.46334 -14.46484,14.46334 -7.0971,0 -12.97124,-5.08605 -14.21144,-11.81838 1.02032,0.0665 2.08643,0.0663 3.16676,0.024 5.17958,-0.20252 10.60235,-1.41844 10.60235,-1.41844 l 1.98073,-0.44234 -1.39446,-1.47392 c 0,0 -1.59413,-1.69198 -2.89386,-3.86848 -0.64987,-1.08826 -1.21235,-2.28835 -1.46943,-3.38568 -0.25708,-1.09732 -0.21499,-2.03687 0.19792,-2.8069 0.86404,-1.61129 3.05019,-2.28184 5.52834,-2.20264 z"
       id="circle4269"
       style="font-size:medium;font-style:normal;font-variant:normal;font-weight:normal;font-stretch:normal;text-indent:0;text-align:start;text-decoration:none;line-height:normal;letter-spacing:normal;word-spacing:normal;text-transform:none;direction:ltr;block-progression:tb;writing-mode:lr-tb;text-anchor:start;baseline-shift:baseline;color:#000000;fill:#ffffff;fill-opacity:1;fill-rule:nonzero;stroke:none;visibility:visible;display:inline;overflow:visible;enable-background:accumulate;font-family:sans-serif" />
  </g>
</svg>
